<svg id="Capa_1" enable-background="new 0 0 512 512" height="512" viewBox="0 0 512 512" width="512" xmlns="http://www.w3.org/2000/svg"><g><g><path clip-rule="evenodd" d="m38.785 353.64v60.01 60.01h59.98 60.008 60.008 59.98 60.008 60.008 60.008 45.183v-120.02c-103.32 41.925-167.495 9.78-223.875-38.324-71.658-61.144-130.674-148.082-241.308-141.676v60.01 60.01z" fill="#b1e4f9" fill-rule="evenodd"/></g><g><path clip-rule="evenodd" d="m280.093 315.315c56.38 48.104 120.555 80.249 223.875 38.324v-299.991c-30.075 74.438-65.394 131.556-105.191 174.927-36.056 39.288-75.797 67.323-118.684 86.74z" fill="#a7e9a6" fill-rule="evenodd"/></g><g><path d="m398.777 375.199c-4.142 0-7.5-3.357-7.5-7.5v-19.813c0-4.143 3.358-7.5 7.5-7.5s7.5 3.357 7.5 7.5v19.813c0 4.143-3.358 7.5-7.5 7.5z"/></g><g><path d="m398.777 315.559c-4.142 0-7.5-3.357-7.5-7.5v-19.843c0-4.143 3.358-7.5 7.5-7.5s7.5 3.357 7.5 7.5v19.843c0 4.142-3.358 7.5-7.5 7.5z" fill="#2b4d66"/></g><g><path d="m398.777 375.199c-4.142 0-7.5-3.357-7.5-7.5v-19.813c0-4.143 3.358-7.5 7.5-7.5s7.5 3.357 7.5 7.5v19.813c0 4.143-3.358 7.5-7.5 7.5z" fill="#2b4d66"/></g><g><path d="m398.777 255.889c-4.142 0-7.5-3.357-7.5-7.5v-19.814c0-4.143 3.358-7.5 7.5-7.5s7.5 3.357 7.5 7.5v19.814c0 4.142-3.358 7.5-7.5 7.5z" fill="#2b4d66"/></g><g><path d="m278.761 451.338c-4.142 0-7.5-3.357-7.5-7.5v-19.842c0-4.143 3.358-7.5 7.5-7.5s7.5 3.357 7.5 7.5v19.842c0 4.142-3.358 7.5-7.5 7.5z" fill="#2b4d66"/></g><g><path d="m278.761 391.669c-4.142 0-7.5-3.357-7.5-7.5v-19.814c0-4.143 3.358-7.5 7.5-7.5s7.5 3.357 7.5 7.5v19.814c0 4.143-3.358 7.5-7.5 7.5z" fill="#2b4d66"/></g><g><path d="m98.765 326.472c-4.142 0-7.5-3.357-7.5-7.5v-19.814c0-4.143 3.358-7.5 7.5-7.5s7.5 3.357 7.5 7.5v19.814c0 4.142-3.358 7.5-7.5 7.5z"/></g><g><path d="m98.765 266.831c-4.142 0-7.5-3.357-7.5-7.5v-19.814c0-4.143 3.358-7.5 7.5-7.5s7.5 3.357 7.5 7.5v19.814c0 4.143-3.358 7.5-7.5 7.5z" fill="#2b4d66"/></g><g><path d="m98.765 326.472c-4.142 0-7.5-3.357-7.5-7.5v-19.814c0-4.143 3.358-7.5 7.5-7.5s7.5 3.357 7.5 7.5v19.814c0 4.142-3.358 7.5-7.5 7.5z" fill="#2b4d66"/></g><g><path d="m98.765 207.189c-4.142 0-7.5-3.357-7.5-7.5v-19.843c0-4.143 3.358-7.5 7.5-7.5s7.5 3.357 7.5 7.5v19.843c0 4.143-3.358 7.5-7.5 7.5z" fill="#2b4d66"/></g><g><path clip-rule="evenodd" d="m503.968 53.648c-22.762 56.325-48.528 102.756-76.959 140.797 11.65 41.613 18.056 87.024 18.056 134.589 0 14.145-.567 28.091-1.672 41.811 18.651-2.778 38.72-8.334 60.575-17.206z" fill="#7fdbae" fill-rule="evenodd"/></g><g><path clip-rule="evenodd" d="m503.968 353.64c-21.855 8.872-41.923 14.428-60.575 17.206-2.891 36.17-9.524 70.696-19.332 102.813h34.724 45.183z" fill="#75cef8" fill-rule="evenodd"/></g><g><path d="m414.799 380.549c-14.453 0-28.471-1.678-42.153-5.025-32.522-7.956-62.567-24.766-97.421-54.503-15.204-12.973-30.022-27.265-44.353-41.086-55.284-53.319-107.503-103.68-191.653-98.809-4.148.243-7.682-2.919-7.921-7.054-.24-4.135 2.918-7.682 7.054-7.921 90.715-5.252 147.758 49.772 202.933 102.986 14.169 13.665 28.82 27.796 43.676 40.473 51.486 43.928 113.312 78.824 216.187 37.08 3.836-1.56 8.212.291 9.77 4.129 1.557 3.839-.292 8.213-4.13 9.77-32.86 13.334-63.279 19.96-91.989 19.96z" fill="#e5384f"/></g><g><path d="m74.529 361.14h-35.659c-4.142 0-7.5-3.357-7.5-7.5s3.358-7.5 7.5-7.5h35.659c177.791 0 293.97-62.188 376.7-201.642 16.571-27.973 31.977-59.485 45.785-93.659 1.551-3.841 5.923-5.698 9.763-4.145 3.841 1.552 5.696 5.924 4.144 9.764-14.09 34.871-29.833 67.065-46.79 95.689-46.324 78.085-102.87 132.456-172.872 166.224-59.659 28.779-130.552 42.769-216.73 42.769z" fill="#fbba58"/></g><path d="m503.968 466.159h-457.683v-111.449c.05-.35.085-.706.085-1.07s-.035-.72-.085-1.07v-117.852c.05-.35.085-.706.085-1.07s-.035-.72-.085-1.07v-117.85c.05-.35.085-.706.085-1.07s-.035-.72-.085-1.07v-105.088c0-4.143-3.358-7.5-7.5-7.5s-7.5 3.357-7.5 7.5v38.648h-11.803c-4.142 0-7.5 3.357-7.5 7.5s3.358 7.5 7.5 7.5h11.803v45.01h-23.255c-4.142 0-7.5 3.357-7.5 7.5s3.358 7.5 7.5 7.5h23.255v44.98h-11.803c-4.142 0-7.5 3.357-7.5 7.5s3.358 7.5 7.5 7.5h11.803v45.01h-23.255c-4.142 0-7.5 3.357-7.5 7.5s3.358 7.5 7.5 7.5h23.255v45.01h-11.803c-4.142 0-7.5 3.357-7.5 7.5s3.358 7.5 7.5 7.5h11.803v44.981h-23.255c-4.142 0-7.5 3.357-7.5 7.5s3.358 7.5 7.5 7.5h23.255v45.01h-11.803c-4.142 0-7.5 3.357-7.5 7.5s3.358 7.5 7.5 7.5h11.803v45.01h-23.255c-4.142 0-7.5 3.357-7.5 7.5s3.358 7.5 7.5 7.5h23.255v23.341c0 4.143 3.358 7.5 7.5 7.5s7.5-3.357 7.5-7.5v-23.341h44.98v11.804c0 4.143 3.358 7.5 7.5 7.5s7.5-3.357 7.5-7.5v-11.804h45.008v23.341c0 4.143 3.358 7.5 7.5 7.5s7.5-3.357 7.5-7.5v-23.341h45.008v11.804c0 4.143 3.358 7.5 7.5 7.5s7.5-3.357 7.5-7.5v-11.804h44.979v23.341c0 4.143 3.358 7.5 7.5 7.5s7.5-3.357 7.5-7.5v-23.341h45.008v11.804c0 4.143 3.358 7.5 7.5 7.5s7.5-3.357 7.5-7.5v-11.804h45.008v23.341c0 4.143 3.358 7.5 7.5 7.5s7.5-3.357 7.5-7.5v-23.341h45.008v11.804c0 4.143 3.358 7.5 7.5 7.5s7.5-3.357 7.5-7.5v-11.804h37.683c4.142 0 7.5-3.357 7.5-7.5s-3.357-7.5-7.499-7.5z" fill="#2b4d66"/></g></svg>